# xmcd CD database file
#
# Track frame offsets:
#	150
#	32222
#	73917
#	95615
#	113545
#	166252
#	198512
#
# Disc length: 2892 seconds
#
# Revision: 0
# Processed by: cddbd v1.5.2PL0 Copyright (c) Steve Scherf et al.
# Submitted via: CDex 1.70beta2
#
DISCID=5c0b4a07
DTITLE=The Juniors - The Juniors - Live In Surinam - Vol.2
DYEAR=1994
DGENRE=Salsa
TTITLE0=Jab Jab Bahaar
TTITLE1=Bubbling Medley:Original Groove-Santo Boma
TTITLE2=Tum Bin Jeevan
TTITLE3=Din Dhal Jaye
TTITLE4=Khierki Khol
TTITLE5=Kisie Se Mujhe Pyar
TTITLE6=Mar Katareh
EXTD=YEAR: 1994
EXTT0=
EXTT1=
EXTT2=
EXTT3=
EXTT4=
EXTT5=
EXTT6=
PLAYORDER=
